<svg xmlns="http://www.w3.org/2000/svg" width="41.625" height="41.625" viewBox="0 0 41.625 41.625"><defs><style>.a{fill:#5ec4e1;}</style></defs><path class="a" d="M39.8,22.15a1.944,1.944,0,0,1-1.266-.5L20.8,4.329,3.069,21.652a1.844,1.844,0,0,1-2.578-.045,1.844,1.844,0,0,1,.045-2.578l19-18.545a1.831,1.831,0,0,1,2.533,0l19,18.545a1.843,1.843,0,0,1,.045,2.578A1.888,1.888,0,0,1,39.8,22.15Zm-3.98,17.641V22.1a1.809,1.809,0,1,0-3.619,0V37.981H26.544V28.3a2.413,2.413,0,0,0-2.4-2.4H17.453a2.413,2.413,0,0,0-2.4,2.4v9.68H9.4V22.1a1.809,1.809,0,1,0-3.619,0V39.791A1.815,1.815,0,0,0,7.592,41.6h9.273a1.815,1.815,0,0,0,1.809-1.809V29.523h4.3V39.791A1.815,1.815,0,0,0,24.78,41.6h9.273A1.776,1.776,0,0,0,35.817,39.791Z" transform="translate(0.013 0.025)"/></svg>