<?xml version="1.0" encoding="utf-8"?>
<!-- Generator: Adobe Illustrator 25.2.0, SVG Export Plug-In . SVG Version: 6.00 Build 0)  -->
<svg version="1.1" id="Layer_1" xmlns="http://www.w3.org/2000/svg" xmlns:xlink="http://www.w3.org/1999/xlink" x="0px" y="0px"
	 viewBox="0 0 45.8 35" style="enable-background:new 0 0 45.8 35;" xml:space="preserve">
<style type="text/css">
	.st0{fill:#5EC4E1;}
</style>
<path class="st0" d="M45,19.2L30,34.3c-0.9,0.9-2.5,0.9-3.4,0c-0.9-0.9-0.9-2.5,0-3.4l0,0L37.6,20H2.4C1.1,20,0,18.9,0,17.5
	c0-1.3,1.1-2.4,2.4-2.4h35.2l-11-11c-0.9-0.9-1-2.4,0-3.4c0,0,0,0,0,0c0.9-0.9,2.4-1,3.4,0c0,0,0,0,0,0l15,15.1
	C46,16.7,46,18.3,45,19.2C45.1,19.2,45,19.2,45,19.2z"/>
</svg>
