<?xml version="1.0" encoding="utf-8"?>
<!-- Generator: Adobe Illustrator 25.2.0, SVG Export Plug-In . SVG Version: 6.00 Build 0)  -->
<svg version="1.1" id="Layer_1" xmlns="http://www.w3.org/2000/svg" xmlns:xlink="http://www.w3.org/1999/xlink" x="0px" y="0px"
	 viewBox="0 0 1080 1920" style="enable-background:new 0 0 1080 1920;" xml:space="preserve">
<style type="text/css">
	.st0{fill:#191E42;}
	.st1{opacity:0.15;}
	.st2{clip-path:url(#SVGID_2_);}
	.st3{fill:#EB6642;enable-background:new    ;}
</style>
<path class="st0" d="M0,0h1080v1920H0V0z"/>
<g class="st1">
	<defs>
		<rect id="SVGID_1_" y="1.5" class="st1" width="1080" height="1747"/>
	</defs>
	<clipPath id="SVGID_2_">
		<use xlink:href="#SVGID_1_"  style="overflow:visible;"/>
	</clipPath>
	<g transform="translate(0 1.453)" class="st2">
		<path class="st3" d="M1066.2,1699.4l24.4-327.4l0,0l20.2-271.2l719.4,350l907.4-162.5l100.2-815.8l-325.4-159.3l-167.9-557.6
			L1959.8,48.3l-612.9-294.8l-5.8,105L1107.9,56.7L982.8-576.6L460.3-91.9l-21.4,411.1L112.4,34.3L-8.1,1015.2l593,293.9l78.5-116.1
			L1066.2,1699.4z M1028.7,1577.6l-171.9-216l204.7-224.1L1028.7,1577.6z M827.5,1324.7l-136.9-172L821,959.9l235.2,114.4
			L827.5,1324.7z M1792.9,336.8l157.4,439.1L1361,809.6L1792.9,336.8z M1337.1,766.8l20.8-373.7l222,107.9L1337.1,766.8z
			 M1836.2,319.9l707.4,314.8l-548.3,129L1836.2,319.9z M1612.6,465.2l-251.9-122.4l12.7-228.8l398.2,177.2L1612.6,465.2z
			 M1289.5,787.2L793,435.2l519-53.5L1289.5,787.2z M930.1,589.4L633.9,817.2L389,698l334.7-255L930.1,589.4z M969.8,617.5
			l305.7,216.8l-186.6,204.3L680.6,839.9L969.8,617.5z M1132.5,1059.8l170-186.1l172.4,352.7L1132.5,1059.8z M1542.7,1259.3
			L1346.1,857l602.2-34.5l-249.1,512.9L1542.7,1259.3z M2159.3,1030.4c57.8,7.3,138.3,17.4,239.2,29.9
			c128.2,15.9,257.5,31.8,315.6,38.9l-18.3,148.7l-493.1,88.9l-114.7-315.5C2105.6,1023.6,2129.5,1026.6,2159.3,1030.4
			L2159.3,1030.4z M2032.2,1004.3l0.2,0.3l123.9,340.6l-319,57.5l-96.4-46.9l240-494.3l49.9,139.3L2032.2,1004.3z M2759.3,730.6
			l-39.6,322.5c-244.9-30.1-580.4-71.6-649.7-81.1l0-0.1l0,0l-58.9-164.2l602.7-141.8L2759.3,730.6z M2787.9,497.4l-22.7,185
			l-606.4-269.8l80.3-179.4L2787.9,497.4z M2319.1-166.7l136.5,452.6L2007.7,70.3L2319.1-166.7z M1389.5-175.7l807.7,388.8
			l-80.9,180.7L1376.2,64.4L1389.5-175.7z M1337.5-77.5l-22.9,412.2l-525.8,54.2L1337.5-77.5z M548.5-109.4l405.1-381.4l113.7,582
			l-91.9,78.1L548.5-109.4z M506.3-81.4l432.1,282.2L708.6,396.1l-97.2,74.1l-128-112L506.3-81.4z M147.9,126.1l425.8,372.8
			L53.4,895.3L147.9,126.1z M42,988l3.5-28.7l302.1-229.7l245.1,119.2l-326,250.7L42,988z M569.1,1249.5l-256.1-127.1l326.3-250.9
			l139.4,67.8L569.1,1249.5z"/>
	</g>
</g>
</svg>
