<svg xmlns="http://www.w3.org/2000/svg" xmlns:xlink="http://www.w3.org/1999/xlink" width="1080" height="1920.453" viewBox="0 0 1080 1920.453"><defs><style>.a,.d{fill:#5ec4e1;}.b{fill:#191e42;}.c{clip-path:url(#a);}.d{opacity:0.15;}</style><clipPath id="a"><rect class="a" width="1080" height="1920" transform="translate(0 3841)"/></clipPath></defs><path class="b" d="M0-231.453H1080V1686.469H0Z" transform="translate(0 231.453)"/><g class="c" transform="translate(0 -3840.547)"><path class="d" d="M2262.018,1851.739l-327.906,15.681.023-.039L1662.547,1880.4l259.709-756.7-271.863-880.8H828.455l-118.5,342.382L176.921,819.869l337.431,346.1L296.413,1810.265l104.977-7.007,225.15,207.287L13.148,2211.928l544.781,459.489,410.664-28.889-242.95,358.867H1713.9l219.433-624.388-124.78-63.746Zm-116.3,52.078-193.484,196.925L1704.888,1924.9ZM1919.261,2134.3l-154.076,156.813-207.256-105.885,84.925-247.423ZM821.017,1296.548l416.639-209.775,105.321,580.842Zm482.364,399.918-373.461,24.94,80.06-233.518ZM799,1255.622,1025.223,515.1l194.86,528.514Zm171.484,204.19-90.837,264.942-228.63,15.274,127.329-416.811Zm358.961,281.474L1040.583,2277l-116.364-508.65Zm-152.55,380.8,262.188,266.278-88.4,257.575L1056.8,2344.818Zm23.071-42.788,177.881-329.884,225.51,160.316-147.42,429.527Zm419.126-215.4-205.449-146.051,329.048-214.076Zm148.093-431.483-375.354,244.2-107.621-593.481,539.448,184.7ZM1464.808,848.368c.211-58.257.383-139.365.5-241.049.148-129.151.18-259.42.188-318h149.852l148.3,478.61-299.2,152.331C1464.581,902.432,1464.7,878.314,1464.808,848.368Zm-10.441,129.3.266-.266L1777.6,812.964l95.929,309.59L1838.754,1223.9l-519.9-178.007,132.17-66.546ZM1094.155,289.33h324.887c-.016,246.751-.36,584.784-1.275,654.709l-.125.055.016.039-155.812,78.45L1047.661,441.653Zm-234.941,0H1045.6L851.682,924.143,663.86,866.316ZM257.153,835.6,689.747,644.975,530.346,1115.8ZM361.5,1759.36,648.946,910.339l189.159,58.233L601.428,1743.336Zm103.851,39.628,411.923-27.505L995.16,2286.8Zm64.513,787L101.983,2230.385l563.762-183.739,88.765,81.727Zm32.847,38.517L790.157,2161.2l221.9,204.3,85.37,87.467-95.584,140.655Zm249.715,330.47L1130.536,2486.9l456.845,468.083Zm868.307,0h-28.881l-264.817-271.808,88.483-257.808,288.513,292.994Zm195.384-555.026-94.919,269.634-288.826-293.33,50.326-146.646Z" transform="translate(2371.811 4142.887) rotate(97)"/></g></svg>