<?xml version="1.0" encoding="utf-8"?>
<!-- Generator: Adobe Illustrator 25.2.0, SVG Export Plug-In . SVG Version: 6.00 Build 0)  -->
<svg version="1.1" id="Layer_1" xmlns="http://www.w3.org/2000/svg" xmlns:xlink="http://www.w3.org/1999/xlink" x="0px" y="0px"
	 viewBox="0 0 45.8 35" style="enable-background:new 0 0 45.8 35;" xml:space="preserve">
<style type="text/css">
	.st0{fill:#5EC4E1;}
</style>
<path class="st0" d="M0.8,15.8l15-15.1c0.9-0.9,2.5-0.9,3.4,0s0.9,2.5,0,3.4l0,0L8.2,15h35.2c1.3,0,2.4,1.1,2.4,2.5
	c0,1.3-1.1,2.4-2.4,2.4H8.1l11,11c0.9,0.9,1,2.4,0,3.4l0,0c-0.9,0.9-2.4,1-3.4,0l0,0l-15-15.1C-0.2,18.3-0.2,16.7,0.8,15.8
	C0.7,15.8,0.8,15.8,0.8,15.8z"/>
</svg>
