<svg height="1920" viewBox="0 0 1080 1920" width="1080" xmlns="http://www.w3.org/2000/svg" xmlns:xlink="http://www.w3.org/1999/xlink"><clipPath id="a"><path d="m0 0h1080v1747h-1080z"/></clipPath><path d="m0-231.453h1080v1920h-1080z" fill="#191e42" transform="translate(0 231.453)"/><g clip-path="url(#a)" transform="translate(0 1.453)"><path d="m2262.018 1851.739-327.906 15.681.023-.039-271.588 13.019 259.709-756.7-271.863-880.8h-821.938l-118.5 342.382-533.034 234.587 337.431 346.1-217.939 644.296 104.977-7.007 225.15 207.287-613.392 201.383 544.781 459.489 410.664-28.889-242.95 358.867h988.257l219.433-624.388-124.78-63.746zm-116.3 52.078-193.484 196.925-247.346-175.842zm-226.457 230.483-154.076 156.813-207.256-105.885 84.925-247.423zm-1098.244-837.752 416.639-209.775 105.321 580.842zm482.364 399.918-373.461 24.94 80.06-233.518zm-504.381-440.844 226.223-740.522 194.86 528.514zm171.484 204.19-90.837 264.942-228.63 15.274 127.329-416.811zm358.961 281.474-288.862 535.714-116.364-508.65zm-152.55 380.8 262.188 266.278-88.4 257.575-293.883-301.121zm23.071-42.788 177.881-329.884 225.51 160.316-147.42 429.527zm419.126-215.4-205.449-146.051 329.048-214.076zm148.093-431.483-375.354 244.2-107.621-593.481 539.448 184.7zm-302.377-584.047c.211-58.257.383-139.365.5-241.049.148-129.151.18-259.42.188-318h149.852l148.3 478.61-299.2 152.331c.133-17.828.252-41.946.36-71.892zm-10.441 129.3.266-.266 322.967-164.438 95.929 309.59-34.775 101.346-519.9-178.007 132.17-66.546zm-360.212-688.338h324.887c-.016 246.751-.36 584.784-1.275 654.709l-.125.055.016.039-155.812 78.45-214.185-580.93zm-234.941 0h186.386l-193.918 634.813-187.822-57.827zm-602.061 546.27 432.594-190.625-159.401 470.825zm104.347 923.76 287.446-849.021 189.159 58.233-236.677 774.764zm103.851 39.628 411.923-27.505 117.886 515.317zm64.513 787-427.881-355.603 563.762-183.739 88.765 81.727zm32.847 38.517 227.446-463.305 221.9 204.3 85.37 87.467-95.584 140.655zm249.715 330.47 318.11-468.075 456.845 468.083zm868.307 0h-28.881l-264.817-271.808 88.483-257.808 288.513 292.994zm195.384-555.026-94.919 269.634-288.826-293.33 50.326-146.646z" fill="#27385b"  transform="matrix(-.12186934 .99254615 -.99254615 -.12186934 3179.811 -320.113)"/></g></svg>