<?xml version="1.0" encoding="utf-8"?>
<!-- Generator: Adobe Illustrator 25.2.0, SVG Export Plug-In . SVG Version: 6.00 Build 0)  -->
<svg version="1.1" id="Layer_1" xmlns="http://www.w3.org/2000/svg" xmlns:xlink="http://www.w3.org/1999/xlink" x="0px" y="0px"
	 viewBox="0 0 1080 1920.5" style="enable-background:new 0 0 1080 1920.5;" xml:space="preserve">
<style type="text/css">
	.st0{fill:#191E42;}
	.st1{opacity:0.15;clip-path:url(#SVGID_2_);}
	.st2{fill:#8282CA;enable-background:new    ;}
</style>
<path class="st0" d="M0,0h1080v1917.9H0V0z"/>
<g>
	<defs>
		<rect id="SVGID_1_" y="0.5" width="1080" height="1920"/>
	</defs>
	<clipPath id="SVGID_2_">
		<use xlink:href="#SVGID_1_"  style="overflow:visible;"/>
	</clipPath>
	<g transform="translate(0 -3840.547)" class="st1">
		<path class="st2" d="M258.2,6162.4l24.4-327.4l0,0l20.2-271.1l719.4,350l907.4-162.5l100.2-815.8l-325.4-159.3l-167.9-557.6
			l-384.6,292.7l-612.9-294.8l-5.8,105l-233.2,198.2l-125.1-633.4l-522.5,484.7l-21.4,411.1l-326.6-284.9l-120.4,980.9l593,293.9
			l78.5-116.1L258.2,6162.4z M220.7,6040.6l-171.9-216l204.7-224.1L220.7,6040.6z M19.5,5787.7l-136.9-172L13,5422.9l235.2,114.4
			L19.5,5787.7z M984.9,4799.8l157.4,439.1L553,5272.6L984.9,4799.8z M529.1,5229.8l20.8-373.7l222,107.9L529.1,5229.8z
			 M1028.2,4782.9l707.4,314.8l-548.3,129L1028.2,4782.9z M804.6,4928.2l-251.9-122.4l12.7-228.8l398.2,177.2L804.6,4928.2z
			 M481.5,5250.2l-496.5-352l519-53.5L481.5,5250.2z M122.1,5052.4l-296.2,227.8L-419,5161l334.7-255L122.1,5052.4z M161.8,5080.5
			l305.7,216.8l-186.6,204.3l-408.4-198.7L161.8,5080.5z M324.5,5522.8l170-186.1l172.4,352.7L324.5,5522.8z M734.7,5722.3
			L538.1,5320l602.2-34.5l-249.1,512.9L734.7,5722.3z M1351.3,5493.4c57.8,7.3,138.3,17.4,239.2,29.9
			c128.2,15.9,257.5,31.8,315.6,38.9l-18.3,148.7l-493.1,88.9l-114.7-315.5C1297.6,5486.6,1321.5,5489.6,1351.3,5493.4z
			 M1224.2,5467.3l0.2,0.3l123.9,340.6l-319,57.5l-96.4-46.9l240-494.3l49.9,139.3L1224.2,5467.3z M1951.3,5193.6l-39.6,322.5
			c-244.9-30.1-580.4-71.6-649.7-81.1l0-0.1l0,0l-58.9-164.2l602.7-141.8L1951.3,5193.6z M1979.9,4960.4l-22.7,185l-606.4-269.8
			l80.3-179.4L1979.9,4960.4z M1511.1,4296.3l136.5,452.6l-447.9-215.6L1511.1,4296.3z M581.5,4287.3l807.7,388.8l-80.9,180.7
			l-740.1-329.3L581.5,4287.3z M529.5,4385.5l-22.9,412.2l-525.8,54.2L529.5,4385.5z M-259.5,4353.6l405.1-381.4l113.7,582
			l-91.9,78.1L-259.5,4353.6z M-301.7,4381.6l432.1,282.2l-229.8,195.3l-97.2,74.1l-128-112L-301.7,4381.6z M-660.1,4589.1
			l425.8,372.8l-520.3,396.4L-660.1,4589.1z M-766,5451l3.5-28.7l302.1-229.7l245.1,119.2l-326,250.7L-766,5451z M-238.9,5712.5
			l-256.1-127.1l326.3-250.9l139.4,67.8L-238.9,5712.5z"/>
	</g>
</g>
</svg>
